<?xml version="1.0" standalone="no"?>
<!DOCTYPE svg PUBLIC "-//W3C//DTD SVG 20010904//EN"
 "http://www.w3.org/TR/2001/REC-SVG-20010904/DTD/svg10.dtd">
<svg version="1.0" xmlns="http://www.w3.org/2000/svg"
 width="263.000000pt" height="263.000000pt" viewBox="0 0 263.000000 263.000000"
 preserveAspectRatio="xMidYMid meet">
<metadata>
Created by potrace 1.14, written by Peter Selinger 2001-2017
</metadata>
<g transform="translate(0.000000,263.000000) scale(0.100000,-0.100000)"
fill="#000000" stroke="none">
<path d="M163 2382 c-27 -4 -27 1 -7 -53 9 -24 17 -48 18 -54 5 -19 18 -50 27
-67 5 -10 9 -25 9 -33 0 -8 5 -15 11 -15 5 0 8 -4 5 -9 -3 -5 1 -11 9 -15 8
-3 15 -11 15 -18 0 -7 13 -26 29 -43 77 -83 197 -134 381 -161 64 -9 257 -23
337 -24 l52 0 0 -777 c0 -428 0 -805 1 -839 l0 -61 270 0 270 0 0 839 0 838
383 1 c210 0 415 0 455 -1 l72 -1 0 245 0 246 -27 1 c-90 2 -2292 3 -2310 1z"/>
</g>
</svg>
